<?xml version="1.0" encoding="UTF-8" standalone="no"?>
<!DOCTYPE svg PUBLIC "-//W3C//DTD SVG 1.0//EN"
 "http://www.w3.org/TR/2001/REC-SVG-20010904/DTD/svg10.dtd">
<!-- Generated by dot version 1.12 (Wed Jun  9 07:04:15 GMT 2004)
     For user: (www) World Wide Web Server   Title: test    Pages: 1 -->
<svg width="735px" height="938px"
 viewBox = "-1 -1 551 703"
 xmlns="http://www.w3.org/2000/svg">
<g id="graph0" class="graph" transform = "scale(0.394737)"
 style="font-family:Times-Roman;font-size:14.00;">
<title>test</title>
<g id="node1" class="node"><title>node1</title>
<polygon style="fill:#eec391;stroke:#eec391;" points="317,26 177,26 177,62 317,62 317,26"/>
<text text-anchor="middle" x="247" y="49">biological_process</text>
</g>
<g id="node7" class="node"><title>node7</title>
<polygon style="fill:#eec391;stroke:#eec391;" points="183,197 117,197 117,237 183,237 183,197"/>
<text text-anchor="middle" x="150" y="214">cellular</text>
<text text-anchor="middle" x="150" y="230">process</text>
</g>
<g id="edge34" class="edge"><title>node1-&gt;node7</title>
<path style="fill:none;stroke:black;" d="M237,62C219,95 180,163 161,197"/>
</g>
<g id="node8" class="node"><title>node8</title>
<polygon style="fill:#eec391;stroke:#eec391;" points="377,375 265,375 265,415 377,415 377,375"/>
<text text-anchor="middle" x="321" y="392">establishment</text>
<text text-anchor="middle" x="321" y="408">of localization</text>
</g>
<g id="edge38" class="edge"><title>node1-&gt;node8</title>
<path style="fill:none;stroke:black;" d="M255,62C267,90 291,147 302,197 316,261 320,339 321,375"/>
</g>
<g id="node14" class="node"><title>node14</title>
<polygon style="fill:#eec391;stroke:#eec391;" points="293,199 201,199 201,235 293,235 293,199"/>
<text text-anchor="middle" x="247" y="222">localization</text>
</g>
<g id="edge36" class="edge"><title>node1-&gt;node14</title>
<path style="fill:none;stroke:black;" d="M247,62C247,96 247,166 247,199"/>
</g>
<g id="node2" class="node"><title>node2</title>
<polygon style="fill:#eec391;stroke:#eec391;" points="146,1527 34,1527 34,1583 146,1583 146,1527"/>
<text text-anchor="middle" x="90" y="1544">mitochondrial</text>
<text text-anchor="middle" x="90" y="1560">pyruvate</text>
<text text-anchor="middle" x="90" y="1576">transport</text>
</g>
<g id="node15" class="node"><title>node15</title>
<polygon style="fill:#a6a6a6;stroke:#a6a6a6;" points="133,1728 47,1728 47,1764 133,1764 133,1728"/>
<text text-anchor="middle" x="90" y="1751" style="fill:blue;">YIL006W</text>
</g>
<g id="edge16" class="edge"><title>node2-&gt;node15</title>
<path style="fill:none;stroke:black;" d="M90,1583C90,1623 90,1695 90,1728"/>
</g>
<g id="node3" class="node"><title>node3</title>
<polygon style="fill:#eec391;stroke:#eec391;" points="117,1142 5,1142 5,1182 117,1182 117,1142"/>
<text text-anchor="middle" x="61" y="1159">mitochondrial</text>
<text text-anchor="middle" x="61" y="1175">transport</text>
</g>
<g id="edge12" class="edge"><title>node3-&gt;node2</title>
<path style="fill:none;stroke:black;" d="M62,1182C67,1247 82,1452 88,1527"/>
</g>
<g id="node4" class="node"><title>node4</title>
<polygon style="fill:#eec391;stroke:#eec391;" points="293,768 195,768 195,808 293,808 293,768"/>
<text text-anchor="middle" x="244" y="785">intracellular</text>
<text text-anchor="middle" x="244" y="801">transport</text>
</g>
<g id="edge80" class="edge"><title>node4-&gt;node3</title>
<path style="fill:none;stroke:black;" d="M234,808C202,873 103,1077 71,1142"/>
</g>
<g id="node35" class="node"><title>node35</title>
<polygon style="fill:#eec391;stroke:#eec391;" points="280,945 202,945 202,985 280,985 280,945"/>
<text text-anchor="middle" x="241" y="962">vacuolar</text>
<text text-anchor="middle" x="241" y="978">transport</text>
</g>
<g id="edge82" class="edge"><title>node4-&gt;node35</title>
<path style="fill:none;stroke:black;" d="M244,808C243,843 242,911 241,945"/>
</g>
<g id="node5" class="node"><title>node5</title>
<polygon style="fill:#eec391;stroke:#eec391;" points="288,563 176,563 176,619 288,619 288,563"/>
<text text-anchor="middle" x="232" y="580">establishment</text>
<text text-anchor="middle" x="232" y="596">of localization</text>
<text text-anchor="middle" x="232" y="612">in cell</text>
</g>
<g id="edge98" class="edge"><title>node5-&gt;node4</title>
<path style="fill:none;stroke:black;" d="M234,619C236,660 241,733 243,768"/>
</g>
<g id="node6" class="node"><title>node6</title>
<polygon style="fill:#eec391;stroke:#eec391;" points="247,375 155,375 155,415 247,415 247,375"/>
<text text-anchor="middle" x="201" y="392">cellular</text>
<text text-anchor="middle" x="201" y="408">localization</text>
</g>
<g id="edge96" class="edge"><title>node6-&gt;node5</title>
<path style="fill:none;stroke:black;" d="M204,415C210,450 221,523 228,563"/>
</g>
<g id="edge40" class="edge"><title>node7-&gt;node6</title>
<path style="fill:none;stroke:black;" d="M156,237C166,272 185,341 195,375"/>
</g>
<g id="node36" class="node"><title>node36</title>
<polygon style="fill:#eec391;stroke:#eec391;" points="177,768 53,768 53,808 177,808 177,768"/>
<text text-anchor="middle" x="115" y="785">transmembrane</text>
<text text-anchor="middle" x="115" y="801">transport</text>
</g>
<g id="edge42" class="edge"><title>node7-&gt;node36</title>
<path style="fill:none;stroke:black;" d="M149,237C144,326 122,680 116,768"/>
</g>
<g id="edge94" class="edge"><title>node8-&gt;node5</title>
<path style="fill:none;stroke:black;" d="M312,415C296,450 263,523 245,563"/>
</g>
<g id="node9" class="node"><title>node9</title>
<polygon style="fill:#eec391;stroke:#eec391;" points="384,573 306,573 306,609 384,609 384,573"/>
<text text-anchor="middle" x="345" y="596">transport</text>
</g>
<g id="edge92" class="edge"><title>node8-&gt;node9</title>
<path style="fill:none;stroke:black;" d="M323,415C328,453 338,536 343,573"/>
</g>
<g id="edge8" class="edge"><title>node9-&gt;node4</title>
<path style="fill:none;stroke:black;" d="M336,609C317,646 274,729 254,768"/>
</g>
<g id="node13" class="node"><title>node13</title>
<polygon style="fill:#4877ff;stroke:#4877ff;" points="409,768 311,768 311,808 409,808 409,768"/>
<text text-anchor="middle" x="360" y="785">organic acid</text>
<text text-anchor="middle" x="360" y="801">transport</text>
</g>
<g id="edge6" class="edge"><title>node9-&gt;node13</title>
<path style="fill:none;stroke:black;" d="M346,609C349,646 355,729 358,768"/>
</g>
<g id="node17" class="node"><title>node17</title>
<polygon style="fill:#eec391;stroke:#eec391;" points="642,947 518,947 518,983 642,983 642,947"/>
<text text-anchor="middle" x="580" y="970">amine transport</text>
</g>
<g id="edge4" class="edge"><title>node9-&gt;node17</title>
<path style="fill:none;stroke:black;" d="M356,609C396,672 528,883 568,947"/>
</g>
<g id="edge10" class="edge"><title>node9-&gt;node36</title>
<path style="fill:none;stroke:black;" d="M324,609C281,646 184,729 139,768"/>
</g>
<g id="node10" class="node"><title>node10</title>
<polygon style="fill:#eec391;stroke:#eec391;" points="165,1338 87,1338 87,1378 165,1378 165,1338"/>
<text text-anchor="middle" x="126" y="1355">pyruvate</text>
<text text-anchor="middle" x="126" y="1371">transport</text>
</g>
<g id="edge14" class="edge"><title>node10-&gt;node2</title>
<path style="fill:none;stroke:black;" d="M122,1378C116,1414 102,1487 95,1527"/>
</g>
<g id="node11" class="node"><title>node11</title>
<polygon style="fill:#eec391;stroke:#eec391;" points="407,1142 281,1142 281,1182 407,1182 407,1142"/>
<text text-anchor="middle" x="344" y="1159">monocarboxylic</text>
<text text-anchor="middle" x="344" y="1175">acid transport</text>
</g>
<g id="edge44" class="edge"><title>node11-&gt;node10</title>
<path style="fill:none;stroke:black;" d="M321,1182C280,1220 190,1300 148,1338"/>
</g>
<g id="node30" class="node"><title>node30</title>
<polygon style="fill:#eec391;stroke:#eec391;" points="265,1338 183,1338 183,1378 265,1378 265,1338"/>
<text text-anchor="middle" x="224" y="1355">allantoate</text>
<text text-anchor="middle" x="224" y="1371">transport</text>
</g>
<g id="edge46" class="edge"><title>node11-&gt;node30</title>
<path style="fill:none;stroke:black;" d="M332,1182C309,1220 259,1300 236,1338"/>
</g>
<g id="node12" class="node"><title>node12</title>
<polygon style="fill:#4877ff;stroke:#4877ff;" points="418,945 300,945 300,985 418,985 418,945"/>
<text text-anchor="middle" x="359" y="962">carboxylic acid</text>
<text text-anchor="middle" x="359" y="978">transport</text>
</g>
<g id="edge86" class="edge"><title>node12-&gt;node11</title>
<path style="fill:none;stroke:black;" d="M357,985C355,1023 349,1104 346,1142"/>
</g>
<g id="node16" class="node"><title>node16</title>
<polygon style="fill:#eec391;stroke:#eec391;" points="632,1142 542,1142 542,1182 632,1182 632,1142"/>
<text text-anchor="middle" x="587" y="1159">amino acid</text>
<text text-anchor="middle" x="587" y="1175">transport</text>
</g>
<g id="edge84" class="edge"><title>node12-&gt;node16</title>
<path style="fill:none;stroke:black;" d="M383,985C427,1023 520,1104 564,1142"/>
</g>
<g id="edge68" class="edge"><title>node13-&gt;node12</title>
<path style="fill:none;stroke:black;" d="M360,808C360,843 359,911 359,945"/>
</g>
<g id="node26" class="node"><title>node26</title>
<polygon style="fill:#a6a6a6;stroke:#a6a6a6;" points="498,947 436,947 436,983 498,983 498,947"/>
<text text-anchor="middle" x="467" y="970" style="fill:blue;">PDR12</text>
</g>
<g id="edge66" class="edge"><title>node13-&gt;node26</title>
<path style="fill:none;stroke:black;" d="M372,808C393,843 436,914 456,947"/>
</g>
<g id="edge90" class="edge"><title>node14-&gt;node6</title>
<path style="fill:none;stroke:black;" d="M242,235C234,268 215,340 206,375"/>
</g>
<g id="edge88" class="edge"><title>node14-&gt;node8</title>
<path style="fill:none;stroke:black;" d="M255,235C268,268 298,340 313,375"/>
</g>
<g id="node18" class="node"><title>node18</title>
<polygon style="fill:#a6a6a6;stroke:#a6a6a6;" points="953,1340 661,1340 661,1376 953,1376 953,1340"/>
<text text-anchor="middle" x="807" y="1363" style="fill:blue;">GAP1 HIP1 AVT2 MUP3 UGA4 AVT3</text>
</g>
<g id="edge18" class="edge"><title>node16-&gt;node18</title>
<path style="fill:none;stroke:black;" d="M610,1182C653,1220 746,1303 787,1340"/>
</g>
<g id="node20" class="node"><title>node20</title>
<polygon style="fill:#eec391;stroke:#eec391;" points="1340,1338 1234,1338 1234,1378 1340,1378 1340,1338"/>
<text text-anchor="middle" x="1287" y="1355">L-amino acid</text>
<text text-anchor="middle" x="1287" y="1371">transport</text>
</g>
<g id="edge26" class="edge"><title>node16-&gt;node20</title>
<path style="fill:none;stroke:black;" d="M632,1175C736,1203 998,1276 1218,1338 1223,1340 1228,1341 1234,1343"/>
</g>
<g id="node23" class="node"><title>node23</title>
<polygon style="fill:#eec391;stroke:#eec391;" points="643,1338 531,1338 531,1378 643,1378 643,1338"/>
<text text-anchor="middle" x="587" y="1355">neutral amino</text>
<text text-anchor="middle" x="587" y="1371">acid transport</text>
</g>
<g id="edge24" class="edge"><title>node16-&gt;node23</title>
<path style="fill:none;stroke:black;" d="M587,1182C587,1220 587,1300 587,1338"/>
</g>
<g id="node24" class="node"><title>node24</title>
<polygon style="fill:#eec391;stroke:#eec391;" points="1081,1338 971,1338 971,1378 1081,1378 1081,1338"/>
<text text-anchor="middle" x="1026" y="1355">sulfur amino</text>
<text text-anchor="middle" x="1026" y="1371">acid transport</text>
</g>
<g id="edge20" class="edge"><title>node16-&gt;node24</title>
<path style="fill:none;stroke:black;" d="M632,1182C716,1220 897,1300 981,1338"/>
</g>
<g id="node28" class="node"><title>node28</title>
<polygon style="fill:#eec391;stroke:#eec391;" points="1209,1338 1099,1338 1099,1378 1209,1378 1209,1338"/>
<text text-anchor="middle" x="1154" y="1355">basic amino</text>
<text text-anchor="middle" x="1154" y="1371">acid transport</text>
</g>
<g id="edge22" class="edge"><title>node16-&gt;node28</title>
<path style="fill:none;stroke:black;" d="M632,1178C735,1213 987,1300 1099,1339"/>
</g>
<g id="node33" class="node"><title>node33</title>
<polygon style="fill:#eec391;stroke:#eec391;" points="405,1338 283,1338 283,1378 405,1378 405,1338"/>
<text text-anchor="middle" x="344" y="1355">vacuolar amino</text>
<text text-anchor="middle" x="344" y="1371">acid transport</text>
</g>
<g id="edge30" class="edge"><title>node16-&gt;node33</title>
<path style="fill:none;stroke:black;" d="M562,1182C515,1220 416,1300 369,1338"/>
</g>
<g id="node37" class="node"><title>node37</title>
<polygon style="fill:#eec391;stroke:#eec391;" points="513,1338 423,1338 423,1378 513,1378 513,1338"/>
<text text-anchor="middle" x="468" y="1355">amino acid</text>
<text text-anchor="middle" x="468" y="1371">export</text>
</g>
<g id="edge28" class="edge"><title>node16-&gt;node37</title>
<path style="fill:none;stroke:black;" d="M575,1182C552,1220 503,1300 480,1338"/>
</g>
<g id="edge64" class="edge"><title>node17-&gt;node16</title>
<path style="fill:none;stroke:black;" d="M581,983C582,1020 585,1103 586,1142"/>
</g>
<g id="node19" class="node"><title>node19</title>
<polygon style="fill:#eec391;stroke:#eec391;" points="1373,1535 1207,1535 1207,1575 1373,1575 1373,1535"/>
<text text-anchor="middle" x="1290" y="1552">gamma-aminobutyric</text>
<text text-anchor="middle" x="1290" y="1568">acid transport</text>
</g>
<g id="node21" class="node"><title>node21</title>
<polygon style="fill:#a6a6a6;stroke:#a6a6a6;" points="1344,1728 1236,1728 1236,1764 1344,1764 1344,1728"/>
<text text-anchor="middle" x="1290" y="1751" style="fill:blue;">GAP1 UGA4</text>
</g>
<g id="edge58" class="edge"><title>node19-&gt;node21</title>
<path style="fill:none;stroke:black;" d="M1290,1575C1290,1612 1290,1692 1290,1728"/>
</g>
<g id="edge56" class="edge"><title>node20-&gt;node19</title>
<path style="fill:none;stroke:black;" d="M1287,1378C1288,1416 1289,1497 1290,1535"/>
</g>
<g id="node22" class="node"><title>node22</title>
<polygon style="fill:#eec391;stroke:#eec391;" points="894,1535 816,1535 816,1575 894,1575 894,1535"/>
<text text-anchor="middle" x="855" y="1552">cysteine</text>
<text text-anchor="middle" x="855" y="1568">transport</text>
</g>
<g id="node25" class="node"><title>node25</title>
<polygon style="fill:#a6a6a6;stroke:#a6a6a6;" points="900,1728 810,1728 810,1764 900,1764 900,1728"/>
<text text-anchor="middle" x="855" y="1751" style="fill:blue;">YLL055W</text>
</g>
<g id="edge78" class="edge"><title>node22-&gt;node25</title>
<path style="fill:none;stroke:black;" d="M855,1575C855,1612 855,1692 855,1728"/>
</g>
<g id="edge54" class="edge"><title>node23-&gt;node22</title>
<path style="fill:none;stroke:black;" d="M615,1378C666,1416 776,1497 827,1535"/>
</g>
<g id="node39" class="node"><title>node39</title>
<polygon style="fill:#eec391;stroke:#eec391;" points="626,1535 548,1535 548,1575 626,1575 626,1535"/>
<text text-anchor="middle" x="587" y="1552">proline</text>
<text text-anchor="middle" x="587" y="1568">transport</text>
</g>
<g id="edge52" class="edge"><title>node23-&gt;node39</title>
<path style="fill:none;stroke:black;" d="M587,1378C587,1416 587,1497 587,1535"/>
</g>
<g id="edge2" class="edge"><title>node24-&gt;node22</title>
<path style="fill:none;stroke:black;" d="M1008,1378C976,1416 905,1497 873,1535"/>
</g>
<g id="node27" class="node"><title>node27</title>
<polygon style="fill:#eec391;stroke:#eec391;" points="1189,1535 1111,1535 1111,1575 1189,1575 1189,1535"/>
<text text-anchor="middle" x="1150" y="1552">histidine</text>
<text text-anchor="middle" x="1150" y="1568">transport</text>
</g>
<g id="node29" class="node"><title>node29</title>
<polygon style="fill:#a6a6a6;stroke:#a6a6a6;" points="1177,1728 1123,1728 1123,1764 1177,1764 1177,1728"/>
<text text-anchor="middle" x="1150" y="1751" style="fill:blue;">HIP1</text>
</g>
<g id="edge60" class="edge"><title>node27-&gt;node29</title>
<path style="fill:none;stroke:black;" d="M1150,1575C1150,1612 1150,1692 1150,1728"/>
</g>
<g id="edge50" class="edge"><title>node28-&gt;node27</title>
<path style="fill:none;stroke:black;" d="M1154,1378C1153,1416 1151,1497 1150,1535"/>
</g>
<g id="node31" class="node"><title>node31</title>
<polygon style="fill:#a6a6a6;stroke:#a6a6a6;" points="253,1537 195,1537 195,1573 253,1573 253,1537"/>
<text text-anchor="middle" x="224" y="1560" style="fill:blue;">DAL5</text>
</g>
<g id="edge48" class="edge"><title>node30-&gt;node31</title>
<path style="fill:none;stroke:black;" d="M224,1378C224,1417 224,1500 224,1537"/>
</g>
<g id="node32" class="node"><title>node32</title>
<polygon style="fill:#eec391;stroke:#eec391;" points="456,1527 356,1527 356,1583 456,1583 456,1527"/>
<text text-anchor="middle" x="406" y="1544">amino acid</text>
<text text-anchor="middle" x="406" y="1560">export from</text>
<text text-anchor="middle" x="406" y="1576">vacuole</text>
</g>
<g id="node38" class="node"><title>node38</title>
<polygon style="fill:#a6a6a6;stroke:#a6a6a6;" points="435,1728 377,1728 377,1764 435,1764 435,1728"/>
<text text-anchor="middle" x="406" y="1751" style="fill:blue;">AVT3</text>
</g>
<g id="edge72" class="edge"><title>node32-&gt;node38</title>
<path style="fill:none;stroke:black;" d="M406,1583C406,1623 406,1695 406,1728"/>
</g>
<g id="edge76" class="edge"><title>node33-&gt;node32</title>
<path style="fill:none;stroke:black;" d="M350,1378C361,1414 384,1487 397,1527"/>
</g>
<g id="node34" class="node"><title>node34</title>
<polygon style="fill:#eec391;stroke:#eec391;" points="263,1134 139,1134 139,1190 263,1190 263,1134"/>
<text text-anchor="middle" x="201" y="1151">vacuolar</text>
<text text-anchor="middle" x="201" y="1167">transmembrane</text>
<text text-anchor="middle" x="201" y="1183">transport</text>
</g>
<g id="edge74" class="edge"><title>node34-&gt;node33</title>
<path style="fill:none;stroke:black;" d="M221,1190C251,1230 304,1303 329,1338"/>
</g>
<g id="edge32" class="edge"><title>node35-&gt;node34</title>
<path style="fill:none;stroke:black;" d="M237,985C230,1021 215,1094 207,1134"/>
</g>
<g id="edge100" class="edge"><title>node36-&gt;node34</title>
<path style="fill:none;stroke:black;" d="M120,808C134,871 178,1062 195,1134"/>
</g>
<g id="edge70" class="edge"><title>node37-&gt;node32</title>
<path style="fill:none;stroke:black;" d="M462,1378C451,1414 428,1487 415,1527"/>
</g>
<g id="node40" class="node"><title>node40</title>
<polygon style="fill:#a6a6a6;stroke:#a6a6a6;" points="616,1728 558,1728 558,1764 616,1764 616,1728"/>
<text text-anchor="middle" x="587" y="1751" style="fill:blue;">NPR2</text>
</g>
<g id="edge62" class="edge"><title>node39-&gt;node40</title>
<path style="fill:none;stroke:black;" d="M587,1575C587,1612 587,1692 587,1728"/>
</g>
</g>
</svg>
